<svg height="512" viewBox="0 0 64 64" width="512" xmlns="http://www.w3.org/2000/svg"><g id="clipboard-coffee_cup-hot_drink-Restaurant" data-name="clipboard-coffee cup-hot drink-Restaurant"><path d="m3 3h46v58h-46z" fill="#cba274"/><path d="m7 8h37v50h-37z" fill="#5bcbfa"/><path d="m39 8v3a2.006 2.006 0 0 1 -2 2h-22a2.006 2.006 0 0 1 -2-2v-3z" fill="#365e7d"/><path d="m19 3h14v5h-14z" fill="#7e543b"/><path d="m58 61h-22l-2-33h26z" fill="#7e543b"/><path d="m59.58 35-1.03 17h-23.1l-1.03-17z" fill="#f5e0ad"/><path d="m33 22h28v6h-28z" fill="#e0e0e2"/><path d="m58 16 1 6h-24l1-4z" fill="#e9e9ea"/><path d="m23.4 20.63c.98 1.9-.06 4.48-2.4 5.83-2.39 1.38-5.23.95-6.33-.96-.02-.04-.05-.08-.07-.13a5.175 5.175 0 0 0 2.65-.72c2.03-1.17 1.47-2.13 3.49-3.3a5.23 5.23 0 0 1 2.66-.72z" fill="#7e543b"/><path d="m23.33 20.5c.02.04.05.08.07.13a5.23 5.23 0 0 0 -2.66.72c-2.02 1.17-1.46 2.13-3.49 3.3a5.175 5.175 0 0 1 -2.65.72c-.98-1.9.06-4.48 2.4-5.83 2.39-1.38 5.23-.95 6.33.96z" fill="#cc8355"/><path d="m51.4 40.63c.98 1.9-.06 4.48-2.4 5.83-2.39 1.38-5.23.95-6.33-.96-.02-.04-.05-.08-.07-.13a5.175 5.175 0 0 0 2.65-.72c2.03-1.17 1.47-2.13 3.49-3.3a5.23 5.23 0 0 1 2.66-.72z" fill="#7e543b"/><path d="m51.33 40.5c.02.04.05.08.07.13a5.23 5.23 0 0 0 -2.66.72c-2.02 1.17-1.46 2.13-3.49 3.3a5.175 5.175 0 0 1 -2.65.72c-.98-1.9.06-4.48 2.4-5.83 2.39-1.38 5.23-.95 6.33.96z" fill="#cc8355"/><g fill="#1a6fb0"><path d="m11 37h3v2h-3z"/><path d="m17 37h11v2h-11z"/><path d="m11 42h3v2h-3z"/><path d="m17 42h11v2h-11z"/><path d="m11 47h3v2h-3z"/><path d="m17 47h11v2h-11z"/><path d="m11 32h3v2h-3z"/><path d="m17 32h11v2h-11z"/><path d="m11 52h3v2h-3z"/><path d="m17 52h11v2h-11z"/></g></g></svg>