<?xml version="1.0"?>
<svg xmlns="http://www.w3.org/2000/svg" xmlns:xlink="http://www.w3.org/1999/xlink" xmlns:svgjs="http://svgjs.com/svgjs" version="1.1" width="512" height="512" x="0" y="0" viewBox="0 0 64 64" style="enable-background:new 0 0 512 512" xml:space="preserve" class=""><g transform="matrix(1,0,0,1,0,0)"><path xmlns="http://www.w3.org/2000/svg" d="m45 31h-1v4c0 .683-.063 1.351-.183 2h1.183c1.654 0 3-1.346 3-3s-1.346-3-3-3z" fill="#5bcbfa" data-original="#000000" style="" class=""/><path xmlns="http://www.w3.org/2000/svg" d="m30.03 15.562-.376 2.193 1.971-1.035c.146-.077.305-.115.465-.115s.319.038.465.115l1.971 1.035-.376-2.193c-.056-.324.052-.655.287-.885l1.594-1.554-2.202-.32c-.326-.047-.607-.252-.753-.547l-.986-1.996-.985 1.996c-.146.295-.427.5-.753.547l-2.202.32 1.594 1.554c.235.229.342.56.286.885z" fill="#5bcbfa" data-original="#000000" style="" class=""/><path xmlns="http://www.w3.org/2000/svg" d="m19.557 21.221.727.391-.145-.86c-.054-.319.051-.645.28-.874l.631-.628-.852-.126c-.328-.049-.61-.256-.754-.555l-.361-.748-.361.748c-.144.299-.426.506-.754.555l-.851.126.631.628c.229.229.334.555.28.875l-.145.858.726-.39c.148-.079.311-.119.474-.119s.325.04.474.119z" fill="#5bcbfa" data-original="#000000" style="" class=""/><path xmlns="http://www.w3.org/2000/svg" d="m59 2h-54c-2.757 0-5 2.243-5 5v39c0 2.757 2.243 5 5 5h29.356l8.123 11h5.155l6.093-11h5.273c2.757 0 5-2.243 5-5v-39c0-2.757-2.243-5-5-5zm-19.117 16.24c.118-.359.43-.621.804-.677l2.299-.341 1.031-2.136c.167-.346.517-.565.9-.565s.733.22.9.565l1.031 2.136 2.298.341c.374.056.686.317.804.677s.023.754-.244 1.021l-1.676 1.669.396 2.361c.063.377-.094.756-.403.979-.174.124-.378.188-.583.188-.162 0-.325-.039-.474-.119l-2.05-1.102-2.05 1.102c-.337.181-.746.153-1.057-.068-.31-.222-.467-.602-.403-.978l.396-2.362-1.677-1.668c-.266-.269-.36-.663-.242-1.023zm-14.834-6.124c.118-.362.431-.626.808-.681l3.688-.536 1.649-3.342c.336-.684 1.457-.684 1.793 0l1.649 3.342 3.688.536c.377.055.689.318.808.681.117.361.02.759-.253 1.024l-2.669 2.602.63 3.672c.064.375-.09.754-.397.978-.174.127-.381.191-.588.191-.159 0-.319-.038-.465-.115l-3.299-1.733-3.299 1.733c-.335.179-.743.148-1.053-.076-.308-.224-.462-.603-.397-.978l.63-3.672-2.669-2.602c-.274-.265-.371-.662-.254-1.024zm-14.049 32.884h-4c-.553 0-1-.447-1-1v-4h2v3h3zm0-35h-3v3h-2v-4c0-.553.447-1 1-1h4zm5.56 14.457c-.205 0-.409-.063-.583-.188-.31-.223-.467-.602-.403-.979l.396-2.361-1.676-1.668c-.268-.268-.362-.662-.244-1.021s.43-.621.804-.677l2.298-.341 1.031-2.136c.167-.346.517-.565.9-.565s.733.22.9.565l1.031 2.136 2.299.341c.374.056.686.317.804.677s.023.754-.244 1.021l-1.677 1.668.396 2.362c.063.376-.094.756-.403.978-.312.222-.72.249-1.057.068l-2.05-1.102-2.05 1.102c-.147.081-.31.12-.472.12zm28.44 14.543h-1.753c-.794 2.028-2.174 3.764-3.93 5h5.683v2h-26v-2h5.683c-2.83-1.992-4.683-5.284-4.683-9v-8c0-.553.447-1 1-1h17v2h-16v7c0 4.963 4.037 9 9 9h2c4.963 0 9-4.037 9-9v-7h-2v-2h3c.553 0 1 .447 1 1v2h1c2.757 0 5 2.243 5 5s-2.243 5-5 5zm13 5c0 .553-.447 1-1 1h-4v-2h3v-3h2zm0-31h-2v-3h-3v-2h4c.553 0 1 .447 1 1z" fill="#5bcbfa" data-original="#000000" style="" class=""/><path xmlns="http://www.w3.org/2000/svg" d="m43.861 20.751-.145.86.727-.391c.297-.158.65-.158.947 0l.726.39-.145-.858c-.054-.32.051-.646.28-.875l.631-.628-.851-.126c-.328-.049-.61-.256-.754-.555l-.361-.748-.361.748c-.144.299-.426.506-.754.555l-.852.126.631.628c.231.229.335.555.281.874z" fill="#5bcbfa" data-original="#000000" style="" class=""/></g></svg>
