<?xml version="1.0"?>
<svg xmlns="http://www.w3.org/2000/svg" xmlns:xlink="http://www.w3.org/1999/xlink" xmlns:svgjs="http://svgjs.com/svgjs" version="1.1" width="512" height="512" x="0" y="0" viewBox="0 0 64 64" style="enable-background:new 0 0 512 512" xml:space="preserve" class=""><g><path xmlns="http://www.w3.org/2000/svg" d="m59 3h-54c-2.209 0-4 1.791-4 4v39c0 2.209 1.791 4 4 4h29.862l8.123 11h4.062l6.092-11h5.861c2.209 0 4-1.791 4-4v-39c0-2.209-1.791-4-4-4z" fill="#5bcbfa" data-original="#f2f2f2" style="" class=""/><path xmlns="http://www.w3.org/2000/svg" d="m32.09 8 1.882 3.813 4.207.611-3.044 2.968.718 4.191-3.763-1.978-3.764 1.978.719-4.191-3.045-2.968 4.208-.611z" fill="#fcc365" data-original="#fcc365" style="" class=""/><path xmlns="http://www.w3.org/2000/svg" d="m19.083 15.522 1.262 2.612 2.822.419-2.042 2.033.482 2.871-2.524-1.355-2.523 1.355.482-2.871-2.042-2.033 2.821-.419z" fill="#fcc365" data-original="#fcc365" style="" class=""/><path xmlns="http://www.w3.org/2000/svg" d="m44.917 15.522 1.262 2.612 2.821.419-2.042 2.033.482 2.871-2.523-1.355-2.524 1.355.482-2.871-2.042-2.033 2.822-.419z" fill="#fcc365" data-original="#fcc365" style="" class=""/><path xmlns="http://www.w3.org/2000/svg" d="m45 39h-4v-2h4c1.654 0 3-1.346 3-3s-1.346-3-3-3h-3v-2h3c2.757 0 5 2.243 5 5s-2.243 5-5 5z" fill="#bd7d26" data-original="#cc6252" style="" class=""/><path xmlns="http://www.w3.org/2000/svg" d="m43 27v8c0 5.523-4.477 10-10 10h-2c-5.523 0-10-4.477-10-10v-8z" fill="#bd7d26" data-original="#e66e5c" style="" class=""/><path xmlns="http://www.w3.org/2000/svg" d="m19 44h26v2h-26z" fill="#bd7d26" data-original="#cc6252" style="" class=""/><g xmlns="http://www.w3.org/2000/svg" fill="#fcc365"><path d="m8 13h-2v-4c0-.553.447-1 1-1h4v2h-3z" fill="#fcc365" data-original="#fcc365" style="" class=""/><path d="m11 45h-4c-.553 0-1-.447-1-1v-4h2v3h3z" fill="#fcc365" data-original="#fcc365" style="" class=""/><path d="m58 13h-2v-3h-3v-2h4c.553 0 1 .447 1 1z" fill="#fcc365" data-original="#fcc365" style="" class=""/><path d="m57 45h-4v-2h3v-3h2v4c0 .553-.447 1-1 1z" fill="#fcc365" data-original="#fcc365" style="" class=""/></g></g></svg>
